<svg id="Ebene_1" data-name="Ebene 1" xmlns="http://www.w3.org/2000/svg" viewBox="0 0 60 60"><title>hc-sun_06</title><path d="M43,43c-1.1,1.1-1.3,2.5-.5,3.2l5.4,5.4c.7.8,2.2.5,3.2-.5s1.3-2.4.5-3.2l-5.4-5.4C45.55,41.75,44,42,43,43Z" style="fill:#d5d8da"/><circle cx="30.05" cy="30.05" r="15.2" style="fill:#d5d8da"/><path d="M51.15,8.85c-1-1-2.5-1.3-3.2-.5l-5.4,5.4c-.8.7-.5,2.2.5,3.2s2.4,1.3,3.2.5l5.4-5.4C52.45,11.35,52.15,9.85,51.15,8.85Z" style="fill:#d5d8da"/><path d="M32.65,9.65V2c0-1-1.2-1.9-2.7-1.9A2.51,2.51,0,0,0,27.25,2v7.7c0,1,1.2,1.9,2.7,1.9S32.65,10.75,32.65,9.65Z" style="fill:#d5d8da"/><path d="M8.8,51.15c1,1,2.5,1.3,3.2.5l5.4-5.4c.8-.7.6-2.1-.5-3.2s-2.5-1.3-3.2-.5L8.3,48C7.5,48.75,7.8,50.15,8.8,51.15Z" style="fill:#d5d8da"/><path d="M1.9,32.75H9.6c1.1,0,1.9-1.2,1.9-2.7s-.9-2.7-1.9-2.7H1.9c-1,0-1.9,1.2-1.9,2.7S.9,32.75,1.9,32.75Z" style="fill:#d5d8da"/><path d="M58,27.35h-7.7c-1,0-1.9,1.2-1.9,2.7s.8,2.7,1.9,2.7H58c1,0,1.9-1.2,1.9-2.7S59,27.35,58,27.35Z" style="fill:#d5d8da"/><path d="M12,8.35c-.7-.8-2.2-.5-3.2.5s-1.3,2.5-.5,3.2l5.4,5.4c.8.8,2.2.5,3.2-.5s1.3-2.5.5-3.2Z" style="fill:#d5d8da"/><path d="M27.25,50.35V58c0,1,1.2,1.9,2.7,1.9s2.7-.8,2.7-1.9v-7.7c0-1-1.2-1.9-2.7-1.9A2.51,2.51,0,0,0,27.25,50.35Z" style="fill:#d5d8da"/><path d="M8.8,51.15c1,1,2.5,1.3,3.2.5l5.4-5.4c.8-.7.6-2.1-.5-3.2s-2.5-1.3-3.2-.5L8.3,48C7.5,48.75,7.8,50.15,8.8,51.15Z" style="fill:gold"/><path d="M27.25,2v7.7c0,1,1.2,1.9,2.7,1.9s2.7-.8,2.7-1.9V2c0-1-1.2-1.9-2.7-1.9A2.51,2.51,0,0,0,27.25,2Z" style="fill:gold"/><path d="M13.7,17.45c.8.8,2.2.5,3.2-.5s1.3-2.5.5-3.2L12,8.35c-.7-.8-2.2-.5-3.2.5s-1.3,2.5-.5,3.2Z" style="fill:gold"/><path d="M30,48.45a2.51,2.51,0,0,0-2.7,1.9V58c0,1,1.2,1.9,2.7,1.9s2.7-.8,2.7-1.9v-7.7C32.65,49.35,31.45,48.45,30,48.45Z" style="fill:gold"/><path d="M1.9,32.75H9.6c1.1,0,1.9-1.2,1.9-2.7s-.9-2.7-1.9-2.7H1.9c-1,0-1.9,1.2-1.9,2.7S.9,32.75,1.9,32.75Z" style="fill:gold"/><path d="M36,16.06a15.2,15.2,0,1,0,0,28Z" style="fill:gold"/></svg>