<svg id="Ebene_1" data-name="Ebene 1" xmlns="http://www.w3.org/2000/svg" viewBox="0 0 60 60"><title>hc-sun_10</title><path d="M11.55,30.05c0,1.5-.9,2.7-1.9,2.7H1.95c-1.1,0-1.9-1.2-1.9-2.7H0c0-1.5.9-2.7,1.9-2.7h7.7c1,0,1.9,1.2,1.9,2.7Z" style="fill:gold"/><path d="M60,30.05c0,1.5-.9,2.7-1.9,2.7h-7.7c-1.1,0-1.9-1.2-1.9-2.7h0c0-1.5.9-2.7,1.9-2.7H58c1,0,1.9,1.2,1.9,2.7Z" style="fill:gold"/><path d="M30,48.45c1.5,0,2.7.9,2.7,1.9v7.7c0,1.1-1.2,1.9-2.7,1.9h0c-1.5,0-2.7-.9-2.7-1.9v-7.7a2.51,2.51,0,0,1,2.7-1.9Z" style="fill:gold"/><path d="M30,0c1.5,0,2.7.9,2.7,1.9v7.7c0,1.1-1.2,1.9-2.7,1.9h0c-1.5,0-2.7-.9-2.7-1.9V1.95A2.51,2.51,0,0,1,30,0Z" style="fill:gold"/><path d="M16.95,43.05c1,1,1.3,2.5.5,3.2L12,51.65c-.8.8-2.2.5-3.2-.5h0c-1-1-1.3-2.5-.5-3.2l5.4-5.4c.7-.7,2.1-.5,3.2.5Z" style="fill:gold"/><path d="M51.15,8.85c1,1,1.3,2.5.5,3.2l-5.4,5.4c-.8.8-2.2.5-3.2-.5h0c-1-1-1.3-2.5-.5-3.2l5.4-5.4c.7-.8,2.2-.5,3.2.5Z" style="fill:gold"/><path d="M43,43.05c1-1,2.5-1.3,3.2-.5l5.4,5.4c.8.8.5,2.2-.5,3.2h0c-1,1-2.5,1.3-3.2.5l-5.4-5.4c-.8-.7-.6-2.1.5-3.2Z" style="fill:gold"/><path d="M8.75,8.85c1-1,2.5-1.3,3.2-.5l5.4,5.4c.8.8.5,2.2-.5,3.2h0c-1,1-2.5,1.3-3.2.5l-5.4-5.4c-.7-.7-.5-2.1.5-3.2Z" style="fill:gold"/><circle cx="30.05" cy="30.05" r="15.2" style="fill:gold"/></svg>