<?xml version="1.0" encoding="utf-8"?>
<!-- Generator: Adobe Illustrator 21.1.0, SVG Export Plug-In . SVG Version: 6.00 Build 0)  -->
<svg version="1.1" id="Ebene_1" xmlns="http://www.w3.org/2000/svg" xmlns:xlink="http://www.w3.org/1999/xlink" x="0px" y="0px"
	 viewBox="0 0 522.4 108.2" style="enable-background:new 0 0 522.4 108.2;" xml:space="preserve">
<style type="text/css">
	.st0{fill:#FAD73C;}
	.st1{fill:#0058A3;}
</style>
<g>
	<path class="st0" d="M522.3,97.6c0,5.8-4.7,10.5-10.5,10.5s-10.5-4.7-10.5-10.5c0-5.8,4.7-10.5,10.5-10.5S522.3,91.8,522.3,97.6"/>
	<path class="st0" d="M480.2,97.6c0,5.8-4.7,10.5-10.5,10.5s-10.5-4.7-10.5-10.5c0-5.8,4.7-10.5,10.5-10.5S480.2,91.8,480.2,97.6"/>
	<path class="st0" d="M438,97.6c0,5.8-4.7,10.5-10.5,10.5c-5.8,0-10.5-4.7-10.5-10.5c0-5.8,4.7-10.5,10.5-10.5
		C433.3,87.1,438,91.8,438,97.6"/>
	<path class="st0" d="M395.8,97.6c0,5.8-4.7,10.5-10.5,10.5s-10.5-4.7-10.5-10.5c0-5.8,4.7-10.5,10.5-10.5S395.8,91.8,395.8,97.6"/>
	<path class="st0" d="M353.7,97.6c0,5.8-4.7,10.5-10.5,10.5s-10.5-4.7-10.5-10.5c0-5.8,4.7-10.5,10.5-10.5S353.7,91.8,353.7,97.6"/>
	<path class="st0" d="M311.4,97.6c0,5.8-4.7,10.5-10.5,10.5c-5.8,0-10.5-4.7-10.5-10.5c0-5.8,4.7-10.5,10.5-10.5
		C306.6,87.1,311.4,91.8,311.4,97.6"/>
	<path class="st1" d="M67.1,43.7c0-8.6,5.2-16.7,14.1-16.7c8.8,0,14,8.3,14,16.7c0,8.1-4.3,16.7-14,16.7
		C71.4,60.4,67.1,51.6,67.1,43.7 M58.2,43.7c0,12.8,9.4,23.4,23,23.4s23-10.7,23-23.4c0-13.6-9.2-23.4-23-23.4
		C67.4,20.1,58.2,30,58.2,43.7 M58.2,43.7c0,12.8,9.4,23.4,23,23.4s23-10.7,23-23.4c0-13.6-9.2-23.4-23-23.4
		C67.4,20.1,58.2,30,58.2,43.7 M67.1,43.7c0-8.6,5.2-16.7,14.1-16.7c8.8,0,14,8.3,14,16.7c0,8.1-4.3,16.7-14,16.7
		C71.4,60.4,67.1,51.6,67.1,43.7"/>
	<path class="st1" d="M257.4,63l-14.9-40.6c0-0.1-0.1-0.2-0.1-0.4c0-0.5,0.4-0.9,1-0.9h6.3h0.1c0.7,0,1.5,0.5,1.7,1.2l11.8,35.9h0.1
		l11.9-35.7v-0.1c0.2-0.6,0.9-1.1,1.6-1.1h5.8c0.5,0,1,0.4,1,0.9c0,0.1,0,0.1,0,0.2l-15.4,42.3l-9.9,28.7c0,0.1-0.1,0.2-0.1,0.4
		c-0.4,0.4-0.9,0.5-1.4,0.1l-5-4c-0.7-0.6-1-1.4-0.6-2.1l7.6-19.6C259.1,67.7,257.9,64.5,257.4,63"/>
	<path class="st1" d="M229.1,48.6v-4c-1.7,0-3.6-0.1-5.3-0.1c-4.5,0-15.6,0.7-15.6,8.6c0,4.7,4.6,7.3,8.4,7.3
		C224.8,60.4,229.1,55.3,229.1,48.6 M237.7,64.3c0,1-0.9,1.9-1.9,1.9h-3.8c-1.1,0-2-0.7-2-1.9v-4h-0.1c-2,2.7-6.3,6.8-14,6.8
		c-9.7,0-16.5-4.2-16.5-14c0-11.3,12.4-14.8,21-14.8c3.2,0,5.6,0,8.8,0.1c0-7.7-2.9-11.7-11.2-11.7c-3.6,0-7.4,1-10.5,2.9
		c-0.2,0.1-0.6,0.2-1,0.2c-1,0-1.7-0.7-1.9-1.7l-0.2-3.2c0-0.4,0.1-0.7,0.5-0.9c4.1-2.4,8.8-4,14.4-4c12.9,0,18.1,6.3,18.1,18.6
		v18.6C237.4,60.5,237.5,62.7,237.7,64.3L237.7,64.3z"/>
	<path class="st1" d="M156.5,43.4c-0.1,7.1,3.6,17,12.5,17c9.4,0,13.3-9.2,13.3-16.7c0-8.3-4.3-16.9-13.4-16.9
		C159.9,26.8,156.3,35.2,156.5,43.4 M182.6,64.1v-4.5h-0.1c-2.2,3.3-7.3,7.4-15.4,7.4c-13.6,0-19.4-12-19.4-24.3
		c0-12,6.3-22.7,19.5-22.7c7.8,0,12.4,3.1,15,7.2h0.1V1.9c0-1,0.7-1.9,1.7-1.9h4.7c1,0,1.9,0.7,1.9,1.9v62.3c0,1-0.7,1.7-1.7,1.9
		h-4.5C183.4,66,182.6,65.1,182.6,64.1"/>
	<path class="st1" d="M48.1,64.3c0,1-0.9,1.9-1.9,1.9H41c-1,0-1.7-0.9-1.7-1.9V38.1H9.6v26.2c0,1-0.7,1.7-1.7,1.9H7.7h-5
		c-1.1,0-2-0.9-2-1.9v-0.1V6.6c0-1.1,0.9-1.9,1.9-1.9h5.2c1,0,1.9,0.9,1.9,1.7v23.8h29.5V6.3c0-1,0.9-1.7,1.9-1.7h5.1
		c1.1,0,2,0.9,2,1.9v57.8H48.1z"/>
	<path class="st1" d="M114.8,66h-0.1c-1,0-1.9-0.9-1.9-1.9V1.9c0-1,0.9-1.9,1.9-1.9h0.1h4.6c1,0,1.9,0.9,1.9,1.9V66H114.8z"/>
	<path class="st1" d="M133.9,66h-0.1c-1,0-1.9-0.9-1.9-1.9V23c0-1,0.9-1.9,1.9-1.9h4.7c1,0,1.9,0.9,1.9,1.9V66H133.9z"/>
	<path class="st1" d="M140.8,1.7v7.6c0,1-0.9,1.7-1.9,1.7h-0.1h-7.4V3.5c0-1,0.9-1.9,1.9-1.9h0.1h7.4V1.7z"/>
	<path class="st1" d="M67.1,43.7c0,8.1,4.3,16.7,14.1,16.7s14-8.8,14-16.7c0-8.6-5.2-16.7-14-16.7C72.3,26.8,67.1,35.1,67.1,43.7
		 M58.2,43.7c0-13.6,9.2-23.4,23-23.4s23,9.8,23,23.4c0,12.8-9.4,23.4-23,23.4C67.6,67.1,58.2,56.5,58.2,43.7"/>
	<path class="st1" d="M336.9,63.6c0,0.9-0.5,1.5-1.1,1.7c-4.5,1.5-9.6,1.7-12.9,1.7c-19.6,0-32.5-12.5-32.5-32
		c0-18.9,13.8-31.5,32.6-31.5c4.3,0,8.6,0.6,12.5,2.1h0.1c0.6,0.2,1.1,0.9,1.1,1.6l-0.5,6c0,0.5-0.5,0.9-0.9,0.9
		c-0.1,0-0.2,0-0.4-0.1c-3.6-1.9-7.6-2.7-11.5-2.7c-14.3,0-23.7,10.2-23.7,23.9c0,14.4,10.4,24.1,23.3,24.1c3.8,0,8.9-0.9,12.3-2.4
		c0.1,0,0.2-0.1,0.4-0.1c0.5,0,0.9,0.4,0.9,1L336.9,63.6z"/>
	<path class="st1" d="M387,64.1c0,1-0.9,1.9-1.9,1.9h-4.7c-1,0-1.9-0.9-1.9-1.9V64V42.8c0-10.4-2.4-15.5-9.6-16
		c-9.4,0-13.8,7.6-13.8,18.5v19c0,1-0.7,1.7-1.7,1.9h-4.7c-1,0-1.9-0.9-1.9-1.9V2c0-1.1,0.9-2,1.9-2h4.7c1,0,1.9,0.9,1.9,1.9v25.7
		h0.1c3-4.7,8.2-7.4,14.5-7.4c11.7,0,16.9,7.2,16.9,19.2v24.8H387z"/>
	<path class="st1" d="M475.7,64c0,1-0.6,1.6-1.4,1.9c-3.1,1.1-6.3,1.2-8.9,1.2c-13.6,0-23-10.7-23-23.4c0-13.6,9.2-23.4,23-23.4
		c2.7,0,6.1,0.5,8.6,1.2c0.9,0.2,1.4,0.9,1.4,1.7v0.1l-0.4,4.2c0,0.5-0.4,0.9-1,0.9c-0.1,0-0.2,0-0.2,0c-2.9-1-5.6-1.5-7.9-1.5
		c-9.3,0-14.5,8.3-14.5,16.7c0,8.1,4.3,16.7,15,16.7c2.4,0,5.3-0.6,7.7-1.9c0.1-0.1,0.2-0.1,0.5-0.1c0.5,0,0.9,0.4,0.9,0.9L475.7,64
		z"/>
	<path class="st1" d="M512.6,66c-0.6,0-1.1-0.2-1.5-0.6l-19.6-22.5v21.2c0,1-0.9,1.9-1.9,1.9h-0.1h-4.3h-0.1c-1,0-1.9-0.9-1.9-1.9
		V1.9c0-1,0.9-1.9,1.9-1.9h4.6c1.1,0,1.9,0.9,1.9,1.9v37.5L509,21.8c0.4-0.4,0.9-0.6,1.4-0.6h8.3c0.5,0,0.9,0.4,0.9,1
		c0,0.2-0.1,0.5-0.2,0.6l-19.4,18.4L522,64.5c0.2,0.1,0.4,0.4,0.4,0.7c0,0.5-0.4,0.9-0.9,0.9L512.6,66z"/>
	<path class="st1" d="M404.8,39.3h23.3c0-6.8-4.1-12.5-11.3-12.5C408.7,26.8,405.4,33.5,404.8,39.3 M433.6,62.9
		c0,0.9-0.5,1.5-1.1,1.7c-3,1.1-6.6,2.5-13.2,2.5c-16,0-23.3-9.7-23.3-24.3c0-13.3,8.4-22.7,21.2-22.7c14.6,0,19.7,10.4,19.9,24.4
		c0,0.5-0.4,1-0.9,1h-31.3c0,8.9,6.9,15,14.9,15c4.6,0,9.7-2,12.5-3.6c0.1-0.1,0.2-0.1,0.5-0.1c0.5,0,1,0.4,1,0.9v5.2H433.6z"/>
</g>
</svg>
